<svg xmlns="http://www.w3.org/2000/svg" enable-background="new 0 0 512 512" version="1" viewBox="0 0 512 512" id="beach"><path fill="none" stroke="#00BBEB" stroke-miterlimit="10" d="M97.8,323.4C97.8,323.5,97.7,323.5,97.8,323.4"></path><path fill="#B6E8FB" d="M446,399.3c-3.5,0.9-6.1,4.1-6.1,7.9c0,9-7.3,16.3-16.3,16.3c-9,0-16.4-7.3-16.4-16.3
			c0-4.5-3.7-8.2-8.2-8.2c-4.5,0-8.2,3.7-8.2,8.2c0,9-7.3,16.3-16.3,16.3c-9,0-16.3-7.3-16.3-16.3c0-4.5-3.7-8.2-8.2-8.2
			c-4.5,0-8.2,3.7-8.2,8.2c0,9-7.3,16.3-16.4,16.3c-9,0-16.3-7.3-16.3-16.3c0-4.5-3.7-8.2-8.2-8.2c-4.5,0-8.2,3.7-8.2,8.2
			c0,9-7.3,16.3-16.3,16.3c-9,0-16.3-7.3-16.3-16.3c0-4.5-3.7-8.2-8.2-8.2c-4.5,0-8.2,3.7-8.2,8.2c0,9-7.3,16.3-16.3,16.3
			c-9,0-16.4-7.3-16.4-16.3c0-4.5-3.7-8.2-8.2-8.2c-4.5,0-8.2,3.7-8.2,8.2c0,9-7.3,16.3-16.3,16.3c-9,0-16.3-7.3-16.3-16.3
			c0-4.5-3.7-8.2-8.2-8.2s-8.2,3.7-8.2,8.2c0,9-7.3,16.3-16.3,16.3c-9,0-16.3-7.3-16.3-16.3c0-4.5-3.7-8.2-8.2-8.2
			c-4.5,0-8.2,3.7-8.2,8.2c0,9-7.3,16.3-16.3,16.3c-9,0-16.4-7.3-16.4-16.3c0-4-2.8-7.3-6.6-8c4.5-29,18.7-55.7,40.4-75.7
			c2.9,8.6,6.5,17.1,10.7,25.4c2.4,4.7,5,9.3,7.8,13.7l2.4,3.8h112.1l-13.6-13.9C199,334,186.1,312.2,178.4,289
			c11.4-0.8,22.8,0.1,34,2.5c5.4,1.1,10.8,2.5,16,4.2c10.7-13.8,25.6-23.8,42.4-28.4c43.4-12.1,88.4,13.2,100.6,56.7
			C409.5,332.4,438.2,362.3,446,399.3z"></path><path fill="#00BBEB" d="M444,392.1c-6.3,2.2-10.7,6.9-11.4,13.7c-0.4,4.2-1.4,8-5.8,9.7c-3.6,1.4-7.9,0.2-10.3-2.9
				c-3-4-1.6-9.6-4.3-13.9c-6.9-10.9-24.4-8.3-28.1,4c-1.3,4.3-0.1,8.6-4.2,11.7c-3.1,2.3-7.6,2.3-10.7,0c-4.1-3.1-2.9-7.4-4.2-11.7
				c-1.8-6-7.4-10.5-13.7-11c-5.6-0.4-11.3,2.2-14.4,7c-2.8,4.4-1.3,9.9-4.3,13.9c-2.3,3.2-6.6,4.3-10.3,2.9
				c-5-1.9-5.2-6.1-5.9-10.6c-2-13.1-18.7-17.8-27.3-7.8c-5,5.8-2.4,21.6-14.6,18.8c-3.6-0.8-6.2-3.7-6.9-7.3
				c-0.5-2.7-0.4-5.1-1.5-7.7c-1.4-3.1-3.7-5.7-6.7-7.4c-5.1-2.8-11.3-2.4-16.2,0.7c-2.7,1.7-4.7,4.4-5.9,7.3
				c-1,2.5-0.7,5.1-1.4,7.7c-2.1,8.2-13.8,9.4-16.9,1.2c-0.9-2.5-0.5-5.2-1.3-7.7c-0.7-2.4-2.2-4.7-3.9-6.5
				c-4.3-4.4-11.2-5.7-16.8-3.4c-5.9,2.3-9.4,7.6-9.9,13.8c-0.3,4.2-2,7.8-6.3,9.1c-3.7,1.1-7.9-0.3-10-3.6c-1-1.6-1.2-3-1.4-4.8
				c-0.6-3.8-1.1-7.1-3.8-10.1c-8.2-9.5-24.5-5.7-27.2,6.8c-1,4.8-0.5,9.5-6,11.6c-4.3,1.6-9.3-0.4-11.2-4.6c-1.1-2.3-0.7-4.7-1.2-7
				c-0.7-3.4-2.6-6.4-5.2-8.6c-5.2-4.5-13-4.9-18.7-1.2c-2.5,1.6-4.4,4-5.6,6.7c-1.4,3.1-0.8,6.4-2,9.5c-1.5,4.1-6,6.4-10.2,5.5
				c-5.1-1.2-6.5-5.3-7-9.9c-0.7-6.9-5.4-12.1-12-14c1.7,3.1,3.5,6.2,5.2,9.2c4.5-27.9,17.8-53.1,38.5-72.4
				c-4.2-1.1-8.4-2.2-12.5-3.3c3.9,11.5,8.8,22.7,14.8,33.3c2.9,5.2,6.8,14.6,13.6,15c6.2,0.4,12.5,0,18.7,0c24.6,0,49.1,0,73.7,0
				c6.5,0,13.1,0,19.6,0c6.5,0,9.8-8.2,5.3-12.8c-7.1-7.3-14.5-14.4-21.2-22.1c-13-15.2-22.9-33-29.3-52c-2.4,3.2-4.8,6.3-7.2,9.5
				c16.4-1,32.4,1.4,48,6.4c2.3,0.7,5.7,0,7.3-1.9c18.2-22.9,48-34.3,76.7-27.1c26,6.5,46.3,26.4,53.7,52c0.7,2.4,2.7,4.7,5.2,5.2
				c34.9,8.1,61.7,35.2,69.3,70.2c2.1,9.4,16.5,5.4,14.5-4c-8.7-39.8-40.1-71.5-79.8-80.7c1.7,1.7,3.5,3.5,5.2,5.2
				c-6.8-23.6-22.9-44-44.9-55.2c-22.3-11.4-49-13.2-72.4-4.2c-15,5.8-28.2,15.3-38.2,27.9c2.4-0.6,4.9-1.3,7.3-1.9
				c-16.8-5.4-34.4-8-52-7c-4.6,0.3-8.9,4.6-7.2,9.5c6.9,20.5,17.2,39.3,31,56c7.2,8.7,15.4,16.6,23.3,24.7
				c1.8-4.3,3.5-8.5,5.3-12.8c-32.8,0-65.6,0-98.3,0c-4.6,0-9.2,0-13.8,0c2.2,1.2,4.3,2.5,6.5,3.7c-8.3-13-15.2-26.5-20.2-41.1
				c-1.8-5.4-8.3-7.3-12.5-3.3C70,339.1,55,367,50.1,397.2c-0.7,4,1,8.1,5.2,9.2c1.7,0.5,1.1,1.5,1.3,3.4c0.3,3,1.2,5.9,2.6,8.6
				c2.7,5.1,7.3,9,12.6,11c10.5,4,22.9-0.3,28.7-9.9c1.4-2.3,2.5-5,3-7.7c0.2-0.9,0-4.6,0.7-5.1c0.7-0.6,0.8,0,1.2,0.5
				c0.4,0.7,0.3,3.9,0.5,4.6c0.2,1.3,0.6,2.5,1.1,3.7c4.3,11.2,16.5,17.7,28.2,14.7c4.9-1.3,9.4-4.2,12.6-8.1
				c1.9-2.3,3.3-4.9,4.2-7.8c0.6-1.9,0.2-6,1-7.1c1.9-2.8,1.8,4.4,2.2,5.9c1.4,5.8,5.2,10.9,10.2,14.1c9.6,6.3,23,4.5,30.6-4.1
				c3.8-4.3,5.2-9,6.1-14.6c0.1-0.5-0.2-2.3,0.7-2.1c1.5,0.4,1,4.3,1.2,5.4c2,11.2,12.7,19.5,24,19.2c11.8-0.4,21.6-9.5,23-21.2
				c0.3-2.9,1.1-5,1.6-1.3c0.9,5.9,2.6,11.2,6.9,15.5c8.6,8.6,22.4,9.2,31.8,1.6c4-3.2,6.9-7.6,8.1-12.6c0.4-1.4,0.4-8.7,2.1-5.9
				c1.1,1.8,0.6,5.6,1.3,7.8c0.9,2.7,2.3,5,4,7.2c3.4,4.3,8.4,7.4,13.9,8.4c11.8,2.1,23.7-4.6,27.4-16.2c0.6-2,0.1-5.5,1.1-7.2
				c0.3-0.5,0.5-1,1.2-0.5c0.6,0.5,0.5,4.2,0.7,5.1c0.6,3.1,1.9,6.2,3.7,8.8c7.3,10.6,22.4,13.6,33.1,6.2c5-3.5,8.8-8.9,9.9-15
				c0.2-1.1-0.1-5.3,1.2-5.3c1.1,0,0.8,2.4,0.9,3.3c1.5,12.9,13.3,22.4,26.3,21c6.2-0.7,11.9-3.8,15.8-8.7c2.1-2.7,3.8-5.7,4.6-9
				c0.3-1.2,0-6.1,1.3-6.6C457,403.3,453.1,388.8,444,392.1z"></path><path fill="none" stroke="#00BBEB" stroke-miterlimit="10" d="M173.7,112.9C173.7,112.9,173.7,112.9,173.7,112.9"></path><path fill="#00BBEB" d="M230.8,358.9c-32.8,0-65.6,0-98.3,0c-4.6,0-9.2,0-13.8,0c2.2,1.2,4.3,2.5,6.5,3.7
				c-23.8-37.3-34.5-81.2-26.8-125.1c3.7-21.3,11.2-41.7,22.3-60.3c5.4-9.1,11.6-17.6,18.6-25.6c1.7-1.9,3.4-3.8,5.2-5.7
				c1.1-1.1,2.2-2.2,3.3-3.3c0.1-0.1,3.9-3.2,1.5-1.6c-1.9,1.2,2-1,2.6-1.3c10.1-5.9,20.3-11.8,30.4-17.6c4.9-2.8,4.9-10.2,0-13
				c0,0-0.1-0.1-0.1-0.1c1.2,2.2,2.5,4.3,3.7,6.5c-0.1,0.6-0.2,1.3-0.3,1.9c-3.7,1.5-7.3,3-11,4.5c3.1,1.8,5.9,2.7,9.4,0.9
				c-2.5,0-5,0-7.6,0c9.2,5.3,18.3,10.6,27.5,15.9c-0.9-3.4-1.8-6.8-2.7-10.3c-9.6,14-18.8,27.5-25.4,43.3
				c-7.6,18.3-12,37.9-12.9,57.8c-1.9,40.2,10.9,80.6,35.5,112.5c8.2,10.6,17.8,20,27.2,29.5c6.8,6.9,17.4-3.7,10.6-10.6
				c-6.5-6.7-13.3-13.2-19.5-20.2c-12.7-14.4-22.8-31.3-29.4-49.3c-12.6-34.9-12.7-73.3,0-108.2c6.3-17.4,16.5-32.1,26.8-47.2
				c2.3-3.3,0.6-8.3-2.7-10.3c-5.3-3.1-10.6-6.1-15.9-9.2c-5.2-3-13-9.8-19.3-6.7c2.5,0,5,0,7.6,0c-0.6-0.3-1.1-0.7-1.7-1
				c-3.8-2.2-10.3-0.4-11,4.5c-0.1,0.5-0.3,1.5-0.3,2.1c0,2.6,1.4,5.2,3.7,6.5c0,0,0.1,0.1,0.1,0.1c0-4.3,0-8.6,0-13
				c-8.3,4.7-16.5,9.5-24.8,14.3c-3,1.7-6.1,3.2-9,5.2c-7.4,5.1-13.6,13.6-19.1,20.5C96.8,181.2,82.3,220.6,81,261.1
				c-0.6,20.7,2.3,41.6,8.5,61.4c3.5,11.2,8.2,22.1,13.7,32.5c3,5.6,8,18.4,15.5,18.9c5.5,0.4,11.1,0,16.6,0c11.7,0,23.3,0,35,0
				c20.2,0,40.4,0,60.5,0C240.4,373.9,240.5,358.9,230.8,358.9z"></path><path fill="#B6E8FB" d="M367.8,224.8l-51.4-29.7l-14.2-8.2L281,174.7l-14.2-8.2l-21.2-12.3l-14.2-8.2l-23.8-13.7l-27.5-15.9
			l29.7-13.7c31.9-9.7,67-6,96.7,11.2C346,136.7,369.5,179.4,367.8,224.8z"></path><path fill="#00BBEB" d="M371.6,218.4c-24-13.9-48-27.7-72-41.6c-24.4-14.1-48.9-28.2-73.3-42.3c-14.1-8.1-28.2-16.3-42.3-24.4
				c0,4.3,0,8.6,0,13c8.4-3.8,16.7-7.7,25.1-11.5c13.4-6.2,30.7-7.2,45.9-6c38.9,3,74.1,26.8,92.3,61.1c9.5,17.9,13.8,38,13.1,58.2
				c-0.3,9.7,14.7,9.6,15,0c1.3-40.1-16.2-79.9-47.5-105.2c-17.5-14.2-38.5-24.1-60.9-27.7c-11.2-1.8-22.6-2.4-33.9-1.2
				c-9.1,0.9-19.1,2.2-27.5,5.9c-9.8,4.4-19.5,9-29.2,13.4c-5.2,2.4-4.5,10.3,0,13c23.9,13.8,47.9,27.7,71.8,41.5
				c23.2,13.4,46.3,26.7,69.4,40.1c15.4,8.9,30.9,17.8,46.3,26.7C372.4,236.2,379.9,223.2,371.6,218.4z"></path><path fill="#B6E8FB" d="M209.9,102.8l-29.7,13.7l-0.1,0l-0.1,0c0,0,0,0,0.1,0c8.4-5.3,17.2-9.4,26.4-12.5l0,0
			C207.6,103.5,208.7,103.2,209.9,102.8z"></path><path fill="#00BBEB" d="M206.1,96.4c-9.9,4.6-19.8,9.1-29.7,13.7c2.5,0,5,0,7.6,0c0,0-0.1,0-0.1-0.1c0,4.3,0,8.6,0,13
				c4.8-2.9,9.5-5.6,14.6-7.9c2.4-1.1,4.9-2.1,7.5-3c1.5-0.5,2.9-1.1,4.4-1.6c0.5-0.4,1-0.8,1.5-1.2c-2.2,1.5-2.2,1.8,0.1,0.8
				c9.2-2.8,5.3-17.3-4-14.5c-1.8,0.6-3.5,1.1-5.2,1.8c-0.5,0.4-1,0.8-1.5,1.2c1.9-1.3,2.2-1.7,0.7-1c-2.9,0.1-6.8,2.6-9.4,3.8
				c-5.7,2.5-11,5.4-16.3,8.6c-4.9,2.9-4.9,10,0,13c5.4,3.2,15-3.3,19.9-5.5c5.8-2.7,11.7-5.4,17.5-8.1
				C222.4,105.3,214.8,92.4,206.1,96.4z"></path><path fill="#B6E8FB" d="M178.4,115.6v0.2l-33.6,19.4l0,0l-0.3,0.1l-7.3,4.2l-14.2,8.2l-15.1,8.7l-14.2,8.2l-15.1,8.7l-14.2,8.2
				l-41.3,23.9c-2.1-56,41.5-103.1,97.5-105.3c18.5-0.7,36.9,3.7,53.1,12.7c0.4,0.2,0.8,0.4,1.2,0.7l1.2,0.7
				C176.8,114.7,177.6,115.2,178.4,115.6z"></path><path fill="#00BBEB" d="M170.9,115.6c0,0.1,0,0.1,0,0.2c1.2-2.2,2.5-4.3,3.7-6.5c-10.9,6.3-22.1,12.3-32.8,18.9
					c-0.8,0.5-1.5,1.2-2.3,1.7c3.1-1.9-1.1,0.3-2,0.8c-2.1,1.2-4.3,2.5-6.4,3.7c-5,2.9-10,5.8-15,8.7
					c-19.4,11.2-38.8,22.4-58.2,33.6C45,184.2,32.1,191.6,19.3,199c3.8,2.2,7.5,4.3,11.3,6.5c-0.8-25.3,8.1-50,25.6-68.5
					c17.6-18.6,42.3-29.3,67.9-29.4c17.9-0.1,35.3,5.1,50.4,14.5c8.2,5.1,15.8-7.9,7.6-13c-28.3-17.6-64.4-21.5-95.7-9.7
					c-26.9,10.2-49.5,30.8-61.3,57.2c-6.8,15.4-10.1,31.9-9.6,48.8c0.2,5.7,6.2,9.4,11.3,6.5c20.1-11.6,40.1-23.2,60.2-34.7
					c10.3-6,20.6-11.9,30.9-17.8c10.1-5.8,20.7-11.1,30.4-17.6c3.7-2.5-1.5,0.6,1.1-0.6c1.2-0.6,2.3-1.4,3.5-2
					c3.8-2.2,7.7-4.4,11.5-6.6c5.9-3.4,11.8-6.8,17.7-10.2c2.3-1.3,3.7-3.8,3.7-6.5c0-0.1,0-0.1,0-0.2
					C185.9,106,170.9,106,170.9,115.6z"></path><path fill="#B6E8FB" d="M78.6,173.4l-14.2,8.2l0,0L78.6,173.4L78.6,173.4z"></path><path fill="#00BBEB" d="M74.8,167c-4.7,2.7-9.4,5.5-14.2,8.2c-4.2,2.4-4.9,8.4-1.5,11.8c0,0,0,0,0,0c2.4,2.4,6.2,2.8,9.1,1.2
					c4.7-2.7,9.4-5.5,14.2-8.2c4.2-2.4,4.9-8.4,1.5-11.8c0,0,0,0,0,0c-6.8-6.8-17.4,3.8-10.6,10.6c0,0,0,0,0,0
					C73.8,174.8,74.3,170.9,74.8,167c-4.7,2.7-9.4,5.5-14.2,8.2c3,0.4,6.1,0.8,9.1,1.2c0,0,0,0,0,0c-0.5,3.9-1,7.9-1.5,11.8
					c4.7-2.7,9.4-5.5,14.2-8.2C90.7,175.1,83.2,162.1,74.8,167z"></path><path fill="#B6E8FB" d="M324.1,37.7l-38.3,22.1L271.7,68l-13.3,7.7l-14.2,8.2l-13.3,7.7l-14.2,8.2l-6.9,3.2
				c-1.1,0.3-2.3,0.7-3.4,1.1l0,0c-9.1,3.1-18,7.2-26.4,12.5c0.1-2.4,0.1-4.9-0.1-7.3c-0.1-1.9-0.3-3.8-0.5-5.8c0,0,0,0,0,0
				c2-12.7,6.6-24.9,13.5-35.8C221,23,279.7,9.7,324.1,37.7z"></path><path fill="#00BBEB" d="M320.4,31.2c-32.2,18.6-64.4,37.2-96.7,55.8c-5,2.9-9.8,5.8-15,8.2c-1.6,0.7-2.7,0.9-4.2,1.5
					c-0.6,0.3-1.2,0.5-1.8,0.8c-2,1.6-2,1.6,0.1-0.2c-0.1,0.5-4.3,1.6-5.1,1.9c-7.4,3-14.6,6.5-21.4,10.7c3.8,2.2,7.5,4.3,11.3,6.5
					c0.1-3.7,0-7.5-0.4-11.2c-0.3-3,0.8-6.7,1.7-10.2c2-7.3,4.9-14.2,8.7-20.8c5.9-10.2,13.8-19.3,23.3-26.3
					c18-13.3,40.7-19.4,63-16.9c13,1.5,25.4,6.2,36.5,13.1c8.2,5.1,15.8-7.9,7.6-13C280.7,1.9,217.6,15.9,187.3,62.5
					c-5.1,7.8-9,16.4-11.8,25.2c-1.5,4.6-3,9.7-3.3,14.6c-0.3,4.6,0.6,9.4,0.4,14.1c-0.2,5.6,6.5,9.4,11.3,6.5
					c5.7-3.5,11.6-6.7,17.8-9.2c2.8-1.1,5.7-2.2,8.6-3.3c0.5-0.4,1-0.8,1.5-1.2c-2,1.3-2.2,1.7-0.8,1.1c1.1,0,2.2-0.8,3.2-1.3
					c4.4-2,8.4-4.1,12.6-6.5c7.8-4.5,15.5-9,23.3-13.4c15.5-8.9,30.9-17.8,46.4-26.8c10.5-6.1,21-12.1,31.5-18.2
					C336.3,39.3,328.7,26.4,320.4,31.2z"></path><g><path fill="#B6E8FB" d="M209.9,102.8l-29.7,13.7l-0.1,0v-0.1c8.4-5.3,17.2-9.4,26.4-12.5l0,0
				C207.6,103.5,208.7,103.2,209.9,102.8z"></path><path fill="#00BBEB" d="M206.1,96.4c-9.9,4.6-20,8.8-29.8,13.7c3.8,2.2,7.5,4.3,11.3,6.5c0,0,0-0.1,0-0.1
					c-1.2,2.2-2.5,4.3-3.7,6.5c5-3.1,10.1-5.9,15.4-8.2c2.5-1.1,5-2,7.5-2.9c1.2-0.4,2.4-0.8,3.5-1.3c5.7-2.6-4.1,1.4,1.6-0.3
					c9.2-2.8,5.3-17.3-4-14.5c-2.1,0.6-4,1.7-6,2.4c-1.3,1-1,0.8,0.8-0.7c-0.9,0.3-1.7,0.6-2.6,0.9c-3.7,1.4-7.4,3-11,4.7
					c-5.5,2.6-16.6,6.4-16.6,13.7c0,6,6.3,9,11.3,6.5c9.8-4.9,19.9-9.2,29.8-13.7C222.4,105.3,214.8,92.4,206.1,96.4z"></path></g><g><path fill="#B6E8FB" d="M285.8,59.8L285.8,59.8L271.7,68l0,0"></path><path fill="#00BBEB" d="M279.4,63.6C279.4,63.6,279.4,63.6,279.4,63.6c0.9-3.4,1.8-6.8,2.7-10.2c-4.7,2.7-9.4,5.4-14.2,8.2
				c3.4,0.9,6.8,1.8,10.3,2.7c0,0,0,0,0,0c-1.8-3.6-6.9-4.6-10.3-2.7c-3.7,2.2-4.5,6.6-2.7,10.3c0,0,0,0,0,0
				c1.8,3.6,6.9,4.6,10.3,2.7c4.7-2.7,9.4-5.4,14.2-8.2c3.7-2.1,4.5-6.6,2.7-10.3c0,0,0,0,0,0c-1.8-3.6-6.9-4.6-10.3-2.7
				C278.4,55.5,277.5,59.9,279.4,63.6L279.4,63.6z"></path></g><g><path fill="#B6E8FB" d="M180.1,116.4C180.1,116.4,180,116.4,180.1,116.4L180.1,116.4v0.1l-1.7-1l-2.3-1.3l-1.2-0.7l-1.2-0.7
			L120.3,82l-14.2-8.2L55.7,44.8c37.9-23.9,88.1-12.5,111.9,25.4c6.4,10.1,10.4,21.4,11.8,33.1c0,0,0,0,0,0c0.3,1.9,0.4,3.8,0.5,5.8
			C180.2,111.5,180.2,114,180.1,116.4z"></path><path fill="#00BBEB" d="M176.3,109.9C176.3,110,176.3,110,176.3,109.9c-4.9,2.9-4.9,10.1,0,13c0,0,0,0,0,0
				c-1.2-2.2-2.5-4.3-3.7-6.5c0,0,0,0.1,0,0.1c3.8-2.2,7.5-4.3,11.3-6.5c-31.8-18.3-63.5-36.7-95.3-55c-9.7-5.6-19.4-11.2-29.1-16.8
				c0,4.3,0,8.6,0,13c21.3-13.2,48.2-15.4,71-4.4c26.8,12.9,42.9,40.6,42.1,69.6c-0.3,9.7,14.7,9.6,15,0
				c0.8-27.4-11.3-54.7-32.8-71.9c-18.1-14.4-41.5-21.8-64.6-19.3c-13.6,1.5-26.5,5.8-38.2,13c-4.7,2.9-5,10.1,0,13
				c33.8,19.5,67.6,39,101.3,58.5c7.7,4.4,15.3,8.9,23,13.3c4.9,2.8,11.3-0.8,11.3-6.5c0-2.7-1.5-5.2-3.8-6.6c0,4.3,0,8.6,0,13
				c0,0,0,0,0,0C192.1,117.9,184.6,105,176.3,109.9z"></path></g><g><path fill="#B6E8FB" d="M180.1,116.4L180.1,116.4L180.1,116.4C180.1,116.4,180.1,116.4,180.1,116.4z"></path><path fill="#00BBEB" d="M172.6,116.4C172.6,116.4,172.6,116.5,172.6,116.4c3.8-2.1,7.5-4.3,11.3-6.4c0,0,0,0,0,0
				c0,4.3,0,8.6,0,13c0,0,0,0,0,0c1.6-1,2.9-2.6,3.4-4.5c0.3-1,0.4-2,0.1-3c0-1-0.3-1.9-0.9-2.8c-1-1.6-2.6-3-4.5-3.4
				c-2-0.4-4-0.3-5.8,0.8c0,0,0,0,0,0C174,111.3,172.5,113.8,172.6,116.4c-0.1,2.7,1.4,5.1,3.7,6.5c0,0,0,0,0,0
				c2.3,1.4,5.3,1.3,7.6,0c2.3-1.3,3.7-3.8,3.7-6.5c0,0,0,0,0-0.1c0-1.9-0.8-3.9-2.2-5.3c-0.7-0.7-1.5-1.2-2.4-1.6
				c-0.9-0.5-1.9-0.7-2.9-0.6c-1.9,0.1-4,0.7-5.3,2.2C173.4,112.6,172.6,114.4,172.6,116.4z"></path></g><g><path fill="#00BBEB" d="M481.5,407.2c0,27.2,0,54.5,0,81.7c2.5-2.5,5-5,7.5-7.5c-15.2,0-30.3,0-45.5,0c-36.4,0-72.8,0-109.2,0
				c-44,0-88.1,0-132.1,0c-38.2,0-76.5,0-114.7,0c-12.5,0-25.1,0-37.6,0c-5.8,0-12.1-0.7-17.9,0c-0.3,0-0.5,0-0.8,0
				c2.5,2.5,5,5,7.5,7.5c0-21.8,0-43.6,0-65.4c-2.5,2.5-5,5-7.5,7.5c6.7-0.3,13.2-2.8,17.7-7.9c2.1-2.4,3.7-5.1,4.8-8.2
				c0.7-2.1,0.4-6.7,1.4-8c1-1.3,1.1,0.2,1.3,0.9c1.1,3.4,0.9,6.7,2.6,10c2.9,5.7,8,10.1,14.1,12c13.1,4.3,28-4.5,30.5-18.1
				c0.2-1.2-0.1-5.2,1.2-5.4c1-0.1,0.9,3.4,1,4.4c1,6.7,4.9,12.7,10.6,16.4c11.4,7.5,27.5,3.3,33.9-8.7c1.7-3.2,2.3-6.4,2.8-10
				c0.1-0.9,0.1-2.8,1.2-1.8c1,0.8,0.7,5.4,1.1,7c0.9,3.3,2.6,6.3,4.8,8.9c9,10.6,25.8,11.1,35.4,1c2.2-2.3,3.9-5.1,5-8
				c0.5-1.2,0.8-2.4,1.1-3.7c0.1-0.6,0.1-4.2,0.4-4.6c0.6-1,1-0.8,1.5,0c0.5,1,0.3,3.5,0.5,4.6c0.4,1.9,1,3.7,1.8,5.5
				c5.8,12.4,21.5,17.3,33.4,10.5c5.7-3.2,10-9,11.4-15.4c0.2-1.1,0.1-6,1.3-6.1c0.9,0,0.7,2.5,0.9,3.4
				c1.6,14.2,15.7,23.9,29.6,20.4c6.2-1.5,11.6-5.8,14.8-11.3c1.7-2.8,2.6-6,2.9-9.2c0.1-1,0-4,1.1-3.3c1.3,0.8,0.8,4.9,1.2,6.6
				c0.8,3.3,2.5,6.4,4.6,9c4.2,5.2,10.5,8.4,17.2,8.8c6.7,0.4,13.5-2.2,18.2-6.9c2.2-2.2,3.9-4.8,5.1-7.6c0.6-1.3,1-2.6,1.3-4
				c0.3-1.2,0-4.3,0.6-5.3c0.5-0.9,0.9-1.1,1.5,0c0.2,0.4,0.1,2.9,0.2,3.6c0.3,2,0.8,3.8,1.6,5.6c2.6,6,7.4,10.7,13.6,13
				c12.9,4.9,28.1-2.9,31.5-16.4c0.4-1.5,0-5.8,1.2-6.6c1.1-0.7,1,1.8,1,2.6c0.6,6.8,4,13,9.5,17.1c11.1,8.3,27.3,5.1,34.6-6.7
				c1.6-2.7,2.7-5.7,3.1-8.7c0.1-0.7-0.1-4.3,1-4.4c1.3-0.1,1.1,5.2,1.3,6.1c0.7,3.2,2.2,6.3,4.2,8.9c8.3,11.1,24.6,12.7,35,3.5
				c5.1-4.5,7.6-11,7.9-17.7C496.9,397.6,481.9,397.6,481.5,407.2c-0.4,10.5-15.8,11.9-17.6,1.3c-0.6-3.4-0.5-6.4-2.3-9.4
				c-1.8-3-4.6-5.3-7.9-6.5c-6.7-2.5-14.4-0.2-18.4,5.8c-3.2,4.8-1.3,11.6-5.8,15.5c-3.5,3-8.8,2.8-12.1-0.4
				c-4.2-4.2-2.2-10.9-5.8-15.6c-4.4-5.8-12.2-7.8-18.9-4.9c-2.9,1.3-5.4,3.4-7,6.2c-1.9,3.2-1.7,6.3-2.4,9.7
				c-0.9,4.6-5.4,7.8-10.1,7.2c-5-0.7-7.2-4.9-7.6-9.4c-0.6-7-5.2-13.1-12.3-14.6c-7-1.5-14.1,2.1-17.3,8.3
				c-2.5,4.9-0.5,11-5.7,14.4c-4,2.6-9.4,1.5-12.1-2.3c-1.4-2-1.5-4.1-1.7-6.4c-0.4-3.6-1.9-7.1-4.5-9.8c-5.2-5.2-13.6-5.9-19.7-2
				c-2.7,1.7-4.7,4.4-5.9,7.3c-1.2,2.9-0.7,6.1-1.7,8.9c-1.7,4.5-7,6.8-11.5,5.1c-5.8-2.2-4.9-7.3-6.2-12.2
				c-4-15.2-26.3-15.2-30.3,0c-1.3,4.9-0.4,10-6.2,12.2c-4.4,1.7-9.5-0.5-11.3-4.8c-1.1-2.5-0.6-5.4-1.4-8c-1-3.4-3.4-6.6-6.4-8.5
				c-6-3.8-14-3.3-19.2,1.6c-2.3,2.2-4,5-4.7,8.2c-0.6,2.9-0.1,5.6-1.8,8.1c-2.5,3.9-7.7,5.1-11.7,2.9c-5.6-3.1-3.8-9.1-6-14.1
				c-2.8-6.4-9.6-10.1-16.6-9.1c-7.2,1.1-12.5,6.9-13.3,14.1c-0.5,4.7-2,9.1-7.3,10c-4.7,0.9-9.2-2.2-10.3-6.8c-0.7-3-0.4-6-1.9-8.9
				c-1.6-3.1-4-5.5-7-7c-6.4-3.2-14.3-1.5-18.9,3.9c-2.3,2.7-3.4,6-3.7,9.5c-0.2,2.4-0.6,4.5-2.2,6.5c-3,3.5-8.3,4.1-12,1.3
				c-4.9-3.6-2.9-10.3-5.7-15.1c-3.6-6.1-11.2-9-18-7c-7.5,2.3-10.2,8.6-11.1,15.7c-0.6,4.7-4,8-8.8,8.2c-4.1,0.2-7.5,3.3-7.5,7.5
				c0,21.8,0,43.6,0,65.4c0,4.1,3.4,7.5,7.5,7.5c15.2,0,30.3,0,45.5,0c36.4,0,72.8,0,109.2,0c44,0,88.1,0,132.1,0
				c38.2,0,76.5,0,114.7,0c18.4,0,37.1,0.7,55.5,0c0.3,0,0.5,0,0.8,0c4.1,0,7.5-3.4,7.5-7.5c0-27.2,0-54.5,0-81.7
				C496.5,397.6,481.5,397.6,481.5,407.2z"></path></g></svg>